<svg width="540" height="540" viewBox="0 0 540 540" fill="none" xmlns="http://www.w3.org/2000/svg">
<path d="M219 358.5C233 357.833 264.8 354.9 280 348.5L267 397C264 411.833 260.6 443.9 271 453.5L144 522.5C159.667 495 193.6 432.7 204 403.5C214.4 374.3 218.333 361.333 219 358.5Z" fill="white"/>
<path d="M115.5 193L116.5 186.5C137.667 175 185.3 146.1 206.5 122.5C233 93 251 59 259.5 29.5L266 28C263.167 43.8333 261.7 80.2 278.5 99C283.333 105.167 301.4 117.2 335 116C359 112.833 412.3 112.2 433.5 135C447.833 145.5 469.2 177.8 440 223C428 241.333 392.4 283.7 346 306.5C327.5 317.5 275.8 340.7 217 345.5C189.333 347.667 131.4 341 121 297C117.5 280.5 120.8 240.8 162 214C145 234.5 118.5 281.3 148.5 304.5C159.5 313.167 191.8 328.1 233 318.5L276.5 193.5C283.167 175 307.8 138.8 353 142C348.167 149.333 337.3 168.1 332.5 184.5C327.7 200.9 306.833 268 297 299.5C321 290.333 376.1 261 404.5 217C417.333 198.667 432.9 157.1 392.5 137.5C375.333 129.167 330 119.7 286 148.5C266.667 160 223.2 198.4 204 260L198.5 262C202.667 242 206.4 199.1 188 187.5C181.5 182.667 161.4 175.7 133 186.5L115.5 193Z" fill="white"/>
</svg>
